<svg xmlns="http://www.w3.org/2000/svg" width="34.924" height="34.924" viewBox="0 0 34.924 34.924"><defs><style>.a{fill:#ffa12e;}</style></defs><path class="a" d="M35.487,18.025A17.462,17.462,0,1,1,18.025.563,17.462,17.462,0,0,1,35.487,18.025Zm-9.974-2.488c.348-2.324-1.422-3.573-3.841-4.406l.785-3.148-1.916-.477-.764,3.065c-.5-.126-1.021-.244-1.535-.361l.77-3.085L17.1,6.647,16.31,9.794c-.417-.095-.826-.189-1.224-.288l0-.01-2.643-.66-.51,2.046s1.422.326,1.392.346a1.019,1.019,0,0,1,.893,1.114l-.894,3.586a1.588,1.588,0,0,1,.2.064l-.2-.05-1.253,5.023a.7.7,0,0,1-.878.455c.019.028-1.393-.348-1.393-.348l-.951,2.193,2.494.622c.464.116.919.238,1.366.352l-.793,3.184,1.914.477.785-3.15q.761.206,1.527.4l-.783,3.135,1.916.477.793-3.178c3.267.618,5.724.369,6.759-2.586.833-2.379-.041-3.752-1.761-4.647a3.055,3.055,0,0,0,2.447-2.813Zm-4.378,6.138c-.592,2.379-4.6,1.093-5.9.771l1.052-4.218C17.589,18.552,21.754,19.194,21.135,21.675Zm.593-6.173c-.54,2.164-3.875,1.065-4.956.8l.954-3.825C18.807,12.742,22.29,13.245,21.727,15.5Z" transform="translate(-0.563 -0.563)"/></svg>