<svg xmlns="http://www.w3.org/2000/svg" width="45.5" height="57" viewBox="0 0 45.5 57"><defs><style>.a,.c{fill:#2e1963;}.b{fill:#f2f2f2;}.c{font-size:19px;font-family:BasisGrotesquePro-Regular, Basis Grotesque Pro;}</style></defs><g transform="translate(-1409.5 -29)"><path class="a" d="M21.26,37.587a7.638,7.638,0,0,1,3.149.782h.059a1.947,1.947,0,0,1,.315,2.7,6.781,6.781,0,0,1-5.1,2.875,8.107,8.107,0,0,1-5.9-1.623,3.575,3.575,0,0,1-1.535-2.562c0-1.1,1.023-1.6,1.968-1.819a16.413,16.413,0,0,1,3.366-.352H21.26ZM18.781,0c6.81,0,13.836,4.928,14.565,12.066.118,1.467,0,2.992.118,4.478a11.061,11.061,0,0,0,2.578,5.163A8.045,8.045,0,0,1,37.4,25.756h0v.45a8.046,8.046,0,0,1-1.968,5.319,9.864,9.864,0,0,1-6.2,3.07,82.968,82.968,0,0,1-21.119,0,9.865,9.865,0,0,1-6.279-3.07A7.927,7.927,0,0,1,0,26.205v-.45a8.236,8.236,0,0,1,1.319-4.048A11.277,11.277,0,0,0,3.94,16.545c.118-1.486,0-2.992.118-4.478C4.806,4.928,11.7,0,18.584,0h.2Z" transform="translate(1409.5 42)"/><g transform="translate(-71 -1)"><circle class="b" cx="13" cy="13" r="13" transform="translate(1500 30)"/><text class="c" transform="translate(1507 50)"><tspan x="0" y="0">4</tspan></text></g></g></svg>