<svg xmlns="http://www.w3.org/2000/svg" width="74.619" height="74.619" viewBox="0 0 74.619 74.619"><defs><style>.a{fill:#ececec;}.b{fill:#8dc351;}.c{fill:#fff;}</style></defs><rect class="a" width="74.619" height="74.619" rx="37" transform="translate(0)"/><g transform="translate(14.805 14.805)"><g transform="translate(0 0)"><circle class="b" cx="22.504" cy="22.504" r="22.504"/><path class="c" d="M21.381,15.1c.795.211,1.59.351,2.385.562s1.59.351,2.385.562c.217.07.289,0,.361-.211.289-1.194.578-2.318.867-3.512.072-.211.145-.281.361-.211.723.211,1.373.351,2.1.492.217.07.217.14.145.281-.289,1.124-.578,2.318-.867,3.442a.519.519,0,0,1-.072.281c.578.14,1.229.281,1.807.421.072,0,.145-.14.217-.211.217-.913.434-1.756.723-2.669L32,13.483c0-.14.072-.211.217-.14.723.211,1.445.351,2.24.562.072,0,.072.07.145.07-.217.913-.434,1.756-.65,2.6a5.721,5.721,0,0,1-.289,1.054c-.072.211,0,.281.217.351l2.385,1.054a6.068,6.068,0,0,1,1.879,1.686,4.1,4.1,0,0,1,.434,3.3A4.324,4.324,0,0,1,37.5,26.056a4.447,4.447,0,0,1-1.59.913c-.072,0-.145.07-.289.07.289.211.578.351.867.562A4.433,4.433,0,0,1,38.22,29.99a5.357,5.357,0,0,1-.145,2.388,6.823,6.823,0,0,1-1.3,2.6,4.528,4.528,0,0,1-2.963,1.545,15.389,15.389,0,0,1-4.408-.14.3.3,0,0,0-.434.211c-.289,1.124-.578,2.318-.867,3.442-.072.281-.072.351-.434.211-.65-.14-1.373-.351-2.024-.492-.217-.07-.217-.14-.145-.281.289-1.194.578-2.388.94-3.512,0-.14.072-.211-.072-.281-.578-.14-1.156-.281-1.807-.421-.145.632-.361,1.264-.506,1.9s-.361,1.264-.506,1.9c-.072.14-.072.211-.289.14-.723-.211-1.445-.351-2.168-.492-.217-.07-.217-.14-.145-.281.289-1.194.578-2.388.94-3.512,0-.07.072-.14.072-.281-1.662-.421-3.324-.843-5.059-1.264.145-.281.217-.492.361-.773.289-.632.578-1.264.795-1.826.072-.211.145-.211.361-.211a12.9,12.9,0,0,0,1.59.351.8.8,0,0,0,1.084-.632c.94-3.582,1.879-7.165,2.746-10.817a1.214,1.214,0,0,0-.867-1.4c-.65-.211-1.3-.351-1.879-.492-.145,0-.217-.07-.145-.211.217-.773.434-1.616.65-2.388-.289.211-.289.211-.217.14Zm3.686,17.35a.255.255,0,0,1,.145.07,20.512,20.512,0,0,0,3.614.7,5.759,5.759,0,0,0,2.457-.211,2.217,2.217,0,0,0,1.156-3.3,4.381,4.381,0,0,0-1.518-1.264,14.9,14.9,0,0,0-4.264-1.264c-.217-.07-.217,0-.289.211-.145.7-.361,1.335-.506,2.037C25.572,30.411,25.356,31.394,25.067,32.448Zm6.071-7.165a4.842,4.842,0,0,0,.795-.14,2.034,2.034,0,0,0,1.373-3.02,3.415,3.415,0,0,0-1.662-1.335,22.567,22.567,0,0,0-3.108-.913c-.217-.07-.289,0-.361.211-.361,1.475-.723,2.88-1.156,4.355-.072.14,0,.211.145.281.289.07.506.14.795.211a23.143,23.143,0,0,0,3.18.351Z" transform="translate(-5.099 -3.979)"/></g></g></svg>