<svg xmlns="http://www.w3.org/2000/svg" width="74.619" height="74.619" viewBox="0 0 74.619 74.619"><defs><style>.a{fill:#ececec;}.b{fill:#f5b300;}.c{fill:#fff;}</style></defs><rect class="a" width="74.619" height="74.619" rx="37" transform="translate(0)"/><g transform="translate(11.193 11.965)"><g transform="translate(0 0)"><g transform="translate(0 0)"><g transform="translate(0 0)"><ellipse class="b" cx="25.637" cy="25.637" rx="25.637" ry="25.637"/><path class="c" d="M21.914,15.528c.89.243,1.779.4,2.669.647s1.779.4,2.669.647c.243.081.323,0,.4-.243.323-1.375.647-2.669.97-4.044.081-.243.162-.323.4-.243.809.243,1.537.4,2.345.566.243.081.243.162.162.323-.324,1.294-.647,2.669-.971,3.963a.611.611,0,0,1-.081.324c.647.162,1.375.323,2.022.485.081,0,.162-.162.243-.243.243-1.051.485-2.022.809-3.073l.243-.97c0-.162.081-.243.243-.162.809.243,1.617.4,2.507.647.081,0,.081.081.162.081-.243,1.051-.485,2.022-.728,2.992a6.738,6.738,0,0,1-.324,1.213c-.081.243,0,.323.243.4l2.669,1.213A6.86,6.86,0,0,1,40.677,22a4.845,4.845,0,0,1,.485,3.8,5.026,5.026,0,0,1-1.213,2.345A4.944,4.944,0,0,1,38.17,29.2c-.081,0-.162.081-.323.081.323.243.647.4.97.647a5.1,5.1,0,0,1,1.941,2.75,6.341,6.341,0,0,1-.162,2.75,7.945,7.945,0,0,1-1.456,2.992,5.023,5.023,0,0,1-3.316,1.779,16.744,16.744,0,0,1-4.933-.162.339.339,0,0,0-.485.243c-.324,1.294-.647,2.669-.971,3.963-.081.323-.081.4-.485.243-.728-.162-1.537-.4-2.264-.566-.243-.081-.243-.162-.162-.323.324-1.375.647-2.75,1.051-4.044,0-.162.081-.243-.081-.323-.647-.162-1.294-.324-2.022-.485-.162.728-.4,1.456-.566,2.184s-.4,1.456-.566,2.184c-.081.162-.081.243-.323.162-.809-.243-1.617-.4-2.426-.566-.243-.081-.243-.162-.162-.323.324-1.375.647-2.75,1.051-4.044,0-.081.081-.162.081-.323-1.86-.485-3.72-.971-5.661-1.456.162-.323.243-.566.4-.89.324-.728.647-1.456.89-2.1.081-.243.162-.243.4-.243a14.085,14.085,0,0,0,1.779.4A.9.9,0,0,0,21.591,33c1.051-4.125,2.1-8.249,3.073-12.455a1.4,1.4,0,0,0-.971-1.617c-.728-.243-1.456-.4-2.1-.566-.162,0-.243-.081-.162-.243.243-.89.485-1.86.728-2.75-.323.243-.323.243-.243.162ZM26.039,35.5a.282.282,0,0,1,.162.081,22.384,22.384,0,0,0,4.044.809,6.272,6.272,0,0,0,2.75-.243,2.581,2.581,0,0,0,1.294-3.8,4.939,4.939,0,0,0-1.7-1.456,16.32,16.32,0,0,0-4.772-1.456c-.243-.081-.243,0-.323.243-.162.809-.4,1.537-.566,2.345C26.6,33.158,26.362,34.291,26.039,35.5Zm6.793-8.249a5.281,5.281,0,0,0,.89-.162,2.357,2.357,0,0,0,1.537-3.478,3.845,3.845,0,0,0-1.86-1.537,24.718,24.718,0,0,0-3.478-1.051c-.243-.081-.324,0-.4.243-.4,1.7-.809,3.316-1.294,5.014-.081.162,0,.243.162.324.324.081.566.162.89.243a25.2,25.2,0,0,0,3.558.4Z" transform="translate(-3.232 -2.992)"/></g></g></g></g></svg>