<svg xmlns="http://www.w3.org/2000/svg" width="74.619" height="74.619" viewBox="0 0 74.619 74.619"><defs><style>.a{fill:#ececec;}.b{fill:#008de4;}.c{fill:#fff;}</style></defs><rect class="a" width="74.619" height="74.619" rx="37"/><g transform="translate(16.939 16.939)"><circle class="b" cx="20.371" cy="20.371" r="20.371"/><path class="c" d="M255.393,207.7h-9.047l-.749,4.189,8.164.012c4.021,0,5.209,1.46,5.175,3.879a17.5,17.5,0,0,1-.787,4.02c-.619,1.811-1.892,3.883-6.662,3.875l-7.934,0-.753,4.192h9.024c3.184,0,4.537-.371,5.97-1.032,3.18-1.468,5.072-4.605,5.828-8.7,1.127-6.1-.279-10.433-8.229-10.433" transform="translate(-230.968 -197.821)"/><path class="c" d="M149.921,416.5a2.665,2.665,0,0,0-2.931,2.477c-.294,1.223-.39,1.716-.39,1.716h9.261a2.665,2.665,0,0,0,2.931-2.477c.294-1.223.39-1.716.39-1.716Z" transform="translate(-138.444 -398.641)"/></g></svg>