<svg xmlns="http://www.w3.org/2000/svg" width="74.619" height="74.619" viewBox="0 0 74.619 74.619"><defs><style>.a{fill:#ececec;}.b{fill:#e1b303;}.c{fill:#fff;}</style></defs><rect class="a" width="74.619" height="74.619" rx="37"/><g transform="translate(16.308 16.308)"><path class="b" d="M22,1A21,21,0,1,0,43,22,21.026,21.026,0,0,0,22,1Z" transform="translate(-1 -1)"/><path class="c" d="M15.637,26.092H9.432A1.432,1.432,0,0,1,8,24.661V8.432A1.432,1.432,0,0,1,9.432,7h6.205a9.546,9.546,0,1,1,0,19.092Zm-4.773-2.864h4.773a6.682,6.682,0,1,0,0-13.365H10.864Z" transform="translate(5.365 4.455)"/><path class="c" d="M15.637,7H9.432A1.432,1.432,0,0,0,8,8.432V24.661a1.432,1.432,0,0,0,1.432,1.432h6.207l0-2.864H10.864V9.864h4.775V7h0Z" transform="translate(5.365 4.455)"/><path class="c" d="M16.478,14.864H6.932a1.432,1.432,0,1,1,0-2.864h9.546a1.432,1.432,0,0,1,0,2.864Z" transform="translate(3.092 9.002)"/><path class="c" d="M11.705,12H6.932a1.432,1.432,0,1,0,0,2.864h4.773Z" transform="translate(3.092 9.002)"/></g></svg>