<svg xmlns="http://www.w3.org/2000/svg" width="24" height="23" viewBox="0 0 24 23"><defs><style>.a{fill:#e1d5ff;}.b{fill:none;}.c{fill:#2e1963;}</style></defs><rect class="a" width="24" height="23" rx="11.5"/><g transform="translate(3.119 3.439)"><path class="b" d="M0,0H16.908V16.908H0Z"/><path class="c" d="M9.045,2A7.045,7.045,0,1,0,16.09,9.045,7.048,7.048,0,0,0,9.045,2Zm0,10.568a.707.707,0,0,1-.7-.7V9.045a.7.7,0,1,1,1.409,0v2.818A.707.707,0,0,1,9.045,12.568Zm.7-5.636H8.341V5.523H9.75Z" transform="translate(-0.591 -0.591)"/></g></svg>