<svg xmlns="http://www.w3.org/2000/svg" width="74.619" height="74.619" viewBox="0 0 74.619 74.619"><defs><style>.a{fill:#ececec;}.b{fill:#00aeff;}</style></defs><rect class="a" width="74.619" height="74.619" rx="37"/><path class="b" d="M1,23.9A22.9,22.9,0,1,0,23.9,1,22.924,22.924,0,0,0,1,23.9Zm12.743,1.255L19.151,22l2.171-11.4a1.562,1.562,0,0,1,3.068.585l-1.663,8.73,3.505-2.044a1.561,1.561,0,1,1,1.574,2.7l-5.853,3.414-1.33,6.984,11.948-1.328a1.56,1.56,0,1,1,.346,3.1L18.866,34.295a1.637,1.637,0,0,1-.173.01,1.561,1.561,0,0,1-1.534-1.853l1.218-6.388-3.06,1.784a1.561,1.561,0,1,1-1.574-2.7Z" transform="translate(13.412 13.412)"/></svg>