<svg xmlns="http://www.w3.org/2000/svg" width="39" height="39" viewBox="0 0 39 39"><defs><style>.a{fill:#2e1963;}.b{fill:#fff;}</style></defs><circle class="a" cx="19.5" cy="19.5" r="19.5"/><g transform="translate(10.106 8.449)"><path class="b" d="M-429.1,519.419l-3.181,4.44a3.125,3.125,0,0,1-2.541,1.306h-3.2a3.127,3.127,0,0,0-2.541,1.305l-.572.8a3.126,3.126,0,0,0,2.541,4.946h6.411a3.126,3.126,0,0,0,2.541-1.305l5.624-7.849a3.126,3.126,0,0,0-2.541-4.947h0A3.126,3.126,0,0,0-429.1,519.419Z" transform="translate(441.726 -510.432)"/><path class="b" d="M-429.661,491.937l3.282-4.581a2.422,2.422,0,0,1,1.969-1.011h3.516a2.421,2.421,0,0,0,1.968-1.011l1.261-1.761a2.421,2.421,0,0,0-1.968-3.832h-7.25a2.422,2.422,0,0,0-1.969,1.011l-5.992,8.365a2.421,2.421,0,0,0,1.968,3.832h1.246A2.421,2.421,0,0,0-429.661,491.937Z" transform="translate(436.737 -479.741)"/></g></svg>