<svg width="13" height="13" viewBox="0 0 13 13" fill="none" xmlns="http://www.w3.org/2000/svg">
<circle cx="6.5" cy="6.5" r="6.435" fill="#EA3223" stroke="#EA3223" stroke-width="0.13"/>
<path d="M6.57353 11.1765C6.89028 11.1765 7.14706 10.8855 7.14706 10.5266C7.14706 10.1677 6.89028 9.87671 6.57353 9.87671C6.25678 9.87671 6 10.1677 6 10.5266C6 10.8855 6.25678 11.1765 6.57353 11.1765Z" fill="white"/>
<path d="M6.57283 8.84078C6.45846 8.84078 6.34877 8.7893 6.2679 8.69766C6.18703 8.60603 6.1416 8.48174 6.1416 8.35215V2.48863C6.1416 2.35903 6.18703 2.23475 6.2679 2.14312C6.34877 2.05148 6.45846 2 6.57283 2C6.68719 2 6.79688 2.05148 6.87775 2.14312C6.95862 2.23475 7.00405 2.35903 7.00405 2.48863V8.35215C7.00405 8.48174 6.95862 8.60603 6.87775 8.69766C6.79688 8.7893 6.68719 8.84078 6.57283 8.84078Z" fill="white"/>
</svg>
