<svg xmlns="http://www.w3.org/2000/svg" width="63" height="63" viewBox="0 0 63 63"><defs><style>.a{fill:#f5f5f5;}.b{fill:#b9b9b9;fill-rule:evenodd;}</style></defs><g transform="translate(-0.281)"><circle class="a" cx="31.5" cy="31.5" r="31.5" transform="translate(0.281)"/><path class="b" d="M10.123.265A2.7,2.7,0,0,0,7.434,2.953V5.642h9.858a4.532,4.532,0,0,1,4.481,4.481V16.4h2.689a2.7,2.7,0,0,0,2.689-2.689V2.953A2.7,2.7,0,0,0,24.462.265Zm-7.17,7.17A2.7,2.7,0,0,0,.265,10.123V20.877a2.7,2.7,0,0,0,2.689,2.689h3.34L7.884,25.95a2.714,2.714,0,0,0,4.476,0l1.591-2.384h3.341a2.7,2.7,0,0,0,2.689-2.689V10.123a2.7,2.7,0,0,0-2.689-2.689ZM6.538,14.6a.9.9,0,1,1-.9.9A.9.9,0,0,1,6.538,14.6Zm3.585,0a.9.9,0,1,1-.9.9A.9.9,0,0,1,10.123,14.6Zm3.585,0a.9.9,0,1,1-.9.9A.9.9,0,0,1,13.707,14.6Z" transform="translate(18.073 17.804)"/></g></svg>