<svg xmlns="http://www.w3.org/2000/svg" xmlns:xlink="http://www.w3.org/1999/xlink" width="1523" height="173" viewBox="0 0 1523 173"><defs><style>.a{opacity:0.64;fill:url(#a);}.b{fill:url(#b);}.c{clip-path:url(#e);}.d{clip-path:url(#f);}.e{fill:url(#g);}.f,.g,.h,.i{fill:#fff;}.f{opacity:0.2;}.g{opacity:0.22;}.h{opacity:0.11;}.i{opacity:0.34;mix-blend-mode:lighten;isolation:isolate;}.j{filter:url(#c);}</style><linearGradient id="a" x1="0.5" x2="0.5" y2="1" gradientUnits="objectBoundingBox"><stop offset="0" stop-color="#f9d36b"/><stop offset="1" stop-color="#ffbd67"/></linearGradient><linearGradient id="b" x2="0.481" y2="0.565" gradientUnits="objectBoundingBox"><stop offset="0" stop-color="#43cc48"/><stop offset="1" stop-color="#6ce427"/></linearGradient><filter id="c" x="-22" y="-191" width="1595" height="955" filterUnits="userSpaceOnUse"><feOffset dy="3" input="SourceAlpha"/><feGaussianBlur stdDeviation="6" result="d"/><feFlood flood-opacity="0.239"/><feComposite operator="in" in2="d"/><feComposite in="SourceGraphic"/></filter><clipPath id="e"><rect class="a" width="1523" height="173" rx="10" transform="translate(36 95)"/></clipPath><clipPath id="f"><g class="j" transform="matrix(1, 0, 0, 1, 0, 0)"><rect class="b" width="1559" height="919" rx="13" transform="translate(0 -0.03)"/></g></clipPath><linearGradient id="g" x1="0.778" y1="0.044" x2="0.052" y2="0.954" gradientUnits="objectBoundingBox"><stop offset="0" stop-color="#ffc175"/><stop offset="0.256" stop-color="#fecc68"/><stop offset="0.733" stop-color="#ffe1a5"/><stop offset="1" stop-color="#f8a034"/></linearGradient></defs><g class="c" transform="translate(-36 -95)"><g transform="translate(36 95.026)"><g class="d" transform="translate(-4 -176)"><path class="e" d="M84.944,0H1529c46.913,0,84.944,6.561,84.944,14.655v275.19c0,8.094-38.031,14.655-84.944,14.655H84.944C38.031,304.5,0,297.939,0,289.845V14.655C0,6.561,38.031,0,84.944,0Z" transform="translate(-31.944 154.974)"/><ellipse class="f" cx="419.5" cy="421" rx="419.5" ry="421" transform="translate(-529 -223.026)"/><ellipse class="g" cx="325" cy="328.5" rx="325" ry="328.5" transform="translate(-440 -138.026)"/><ellipse class="h" cx="430" cy="435" rx="430" ry="435" transform="translate(939 431.974)"/><ellipse class="i" cx="235.5" cy="236" rx="235.5" ry="236" transform="translate(-347 -38.026)"/></g></g></g></svg>